<svg width="1026" height="660" viewBox="0 0 1026 660" fill="none" xmlns="http://www.w3.org/2000/svg">
<path d="M0 0H1026V660H0V0Z" fill="url(#paint0_radial_317_1189)"/>
<rect x="434" y="88" width="171" height="572" fill="url(#paint1_linear_317_1189)"/>
<rect x="605" y="185" width="64" height="475" fill="url(#paint2_linear_317_1189)"/>
<rect x="669" y="286" width="64" height="374" fill="url(#paint3_linear_317_1189)"/>
<rect x="733" y="428" width="64" height="232" fill="url(#paint4_linear_317_1189)"/>
<rect x="797" y="534" width="64" height="126" fill="url(#paint5_linear_317_1189)"/>
<rect x="354" y="153" width="80" height="507" fill="url(#paint6_linear_317_1189)"/>
<rect x="274" y="339" width="80" height="321" fill="url(#paint7_linear_317_1189)"/>
<rect x="194" y="400" width="80" height="260" fill="url(#paint8_linear_317_1189)"/>
<rect x="114" y="534" width="80" height="126" fill="url(#paint9_linear_317_1189)"/>
<defs>
<radialGradient id="paint0_radial_317_1189" cx="0" cy="0" r="1" gradientUnits="userSpaceOnUse" gradientTransform="translate(513 660) rotate(-90) scale(660 498.23)">
<stop stop-color="#BABABA"/>
<stop offset="1"/>
</radialGradient>
<linearGradient id="paint1_linear_317_1189" x1="519.5" y1="88" x2="519.5" y2="660" gradientUnits="userSpaceOnUse">
<stop stop-color="white" stop-opacity="0"/>
<stop offset="1" stop-color="white"/>
</linearGradient>
<linearGradient id="paint2_linear_317_1189" x1="637" y1="185" x2="637" y2="660" gradientUnits="userSpaceOnUse">
<stop stop-color="white" stop-opacity="0"/>
<stop offset="1" stop-color="white"/>
</linearGradient>
<linearGradient id="paint3_linear_317_1189" x1="701" y1="286" x2="701" y2="660" gradientUnits="userSpaceOnUse">
<stop stop-color="white" stop-opacity="0"/>
<stop offset="1" stop-color="white"/>
</linearGradient>
<linearGradient id="paint4_linear_317_1189" x1="765" y1="428" x2="765" y2="660" gradientUnits="userSpaceOnUse">
<stop stop-color="white" stop-opacity="0"/>
<stop offset="1" stop-color="white"/>
</linearGradient>
<linearGradient id="paint5_linear_317_1189" x1="829" y1="534" x2="829" y2="660" gradientUnits="userSpaceOnUse">
<stop stop-color="white" stop-opacity="0"/>
<stop offset="1" stop-color="white"/>
</linearGradient>
<linearGradient id="paint6_linear_317_1189" x1="394" y1="153" x2="394" y2="660" gradientUnits="userSpaceOnUse">
<stop stop-color="white" stop-opacity="0"/>
<stop offset="1" stop-color="white"/>
</linearGradient>
<linearGradient id="paint7_linear_317_1189" x1="314" y1="339" x2="314" y2="660" gradientUnits="userSpaceOnUse">
<stop stop-color="white" stop-opacity="0"/>
<stop offset="1" stop-color="white"/>
</linearGradient>
<linearGradient id="paint8_linear_317_1189" x1="234" y1="400" x2="234" y2="660" gradientUnits="userSpaceOnUse">
<stop stop-color="white" stop-opacity="0"/>
<stop offset="1" stop-color="white"/>
</linearGradient>
<linearGradient id="paint9_linear_317_1189" x1="154" y1="534" x2="154" y2="660" gradientUnits="userSpaceOnUse">
<stop stop-color="white" stop-opacity="0"/>
<stop offset="1" stop-color="white"/>
</linearGradient>
</defs>
</svg>
